<svg width="487" height="834" fill="none" xmlns="http://www.w3.org/2000/svg"><path d="M0 181.52v-6.013h1.5v-1.947l1.832-.649-.5-1.414 5.662-2.006.5 1.414 5.664-2.006-.501-1.413 5.663-2.006.5 1.414 5.663-2.006-.5-1.414 5.662-2.006.501 1.414 5.663-2.006-.501-1.414 5.663-2.006.5 1.414 5.663-2.005-.5-1.414 5.662-2.006.501 1.414 5.663-2.006-.5-1.414 5.662-2.006.5 1.414 5.664-2.006-.501-1.414 5.663-2.005.5 1.413 5.663-2.005-.5-1.414 5.662-2.006.5 1.414 5.664-2.006-.501-1.414 5.663-2.006.5 1.414 5.663-2.006-.5-1.414 5.662-2.005.501 1.414 5.663-2.006-.501-1.414 5.663-2.006.501 1.414 5.663-2.006-.501-1.414 5.662-2.006.501 1.414 5.663-2.005-.501-1.414 5.663-2.006.501 1.414 5.663-2.006-.501-1.414 5.663-2.006.5 1.414 5.663-2.006-.501-1.414 5.663-2.005.501 1.413 5.663-2.005-.501-1.414 5.663-2.006.501 1.414 5.662-2.006-.5-1.414 5.662-2.006.501 1.414 5.663-2.006-.501-1.414 5.663-2.005.501 1.414 5.663-2.006-.501-1.414 5.663-2.006.5 1.414 5.663-2.006-.501-1.414 5.663-2.006.501 1.414 5.663-2.005-.501-1.414 5.663-2.006.501 1.414 5.662-2.006-.5-1.414 5.662-2.006.501 1.414 5.663-2.006-.501-1.414 5.663-2.005.501 1.413 5.663-2.005-.501-1.414 5.663-2.006.5 1.414 5.663-2.006-.501-1.414 5.663-2.006.501 1.414 5.663-2.006-.501-1.414 5.663-2.005.5 1.414 5.663-2.006-.501-1.414 5.663-2.006.501 1.414 5.663-2.006-.501-1.414 5.663-2.006.501 1.414 5.662-2.005-.5-1.414 5.662-2.006.501 1.414 5.663-2.006-.501-1.414 5.663-2.006.501 1.414 5.663-2.006-.501-1.414 5.663-2.006.5 1.414 5.663-2.005-.501-1.414 5.663-2.006.501 1.414 5.663-2.006-.501-1.414 5.663-2.006.501 1.414 5.662-2.006-.5-1.414 5.662-2.005.501 1.414 5.663-2.006-.501-1.414 5.663-2.006.501 1.414 5.663-2.006-.501-1.414 5.663-2.006.5 1.414 5.663-2.006-.501-1.414 5.663-2.005.501 1.414 5.663-2.006-.501-1.414 5.663-2.006.501 1.414 5.662-2.006-.501-1.414 5.663-2.006.501 1.414 5.663-2.006-.501-1.413 5.663-2.006.501 1.414 5.662-2.006-.5-1.414 5.662-2.006.501 1.414 5.663-2.006-.501-1.414 5.663-2.005.501 1.413 5.663-2.005-.501-1.414 5.663-2.006.5 1.414.831-.294v.881h1.5v6.01h-1.5v6.008h1.5v6.01h-1.5v6.008h1.5v6.009h-1.5v6.009h1.5v6.009h-1.5v6.009h1.5v6.009h-1.5v6.008h1.5v6.01h-1.5v6.008h1.5v6.01h-1.5v6.008h1.5v6.01h-1.5v6.008h1.5v6.009h-1.5v6.009h1.5v6.009h-1.5v6.009h1.5v6.009h-1.5v6.009h1.5v6.008h-1.5v6.009h1.5v6.009h-1.5v6.009h1.5v6.009h-1.5v6.009h1.5v6.009h-1.5v6.009h1.5v6.009h-1.5v6.009h1.5v6.009h-1.5v6.009h1.5v6.009h-1.5v6.009h1.5v6.008h-1.5v6.009h1.5v6.009h-1.5v6.009h1.5v6.009h-1.5v6.009h1.5v6.009h-1.5v6.009h1.5v6.009h-1.5v6.009h1.5v6.009h-1.5v6.009h1.5v6.009h-1.5v6.009h1.5v6.009h-1.5v6.009h1.5v6.009h-1.5v6.008h1.5v6.009h-1.5v6.009h1.5v6.009h-1.5v6.009h1.5v6.009h-1.5v6.009h1.5v6.009h-1.5v6.009h1.5v6.009h-1.5v6.009h1.5v6.009h-1.5v6.009h1.5v6.009h-1.5v6.009h1.5v6.009h-1.5v6.009h1.5v6.008h-1.5v6.009h1.5v6.009h-1.5v6.009h1.5v6.009h-1.5v6.009h1.5v6.009h-1.5v6.009h1.5v6.009h-1.5v6.009h1.5v6.009h-1.5v6.009h1.5v6.009h-1.5v6.008h1.5v6.009h-1.5v6.009h1.5v6.009h-1.5v6.009h1.5v6.009h-1.5v6.009h1.5v6.009h-1.5v6.009h1.5v6.009h-1.5v6.009h1.5v6.009h-1.5v6.009h1.5v6.009h-1.5v6.008h1.5v6.009h-1.5v6.009h1.5v6.009h-1.5v6.009h1.5v6.009h-1.5v6.009h1.5v6.009h-1.5v6.009h1.5v6.009h-1.5v6.009h1.5v6.009h-1.5v6.009h1.5v6.009h-1.5v1.92l-1.802.596.471 1.424-5.663 1.872-.471-1.424-5.662 1.872.47 1.424-5.662 1.872-.471-1.424-5.663 1.872.471 1.424-5.663 1.872-.471-1.424-5.663 1.872.471 1.424-5.663 1.873-.47-1.425-5.663 1.872.471 1.425-5.663 1.872-.471-1.424-5.663 1.872.471 1.424-5.663 1.872-.471-1.424-5.662 1.872.47 1.424-5.662 1.872-.471-1.424-5.663 1.872.471 1.424-5.663 1.872-.471-1.424-5.663 1.872.471 1.424-5.663 1.873-.47-1.425-5.663 1.872.471 1.425-5.663 1.872-.471-1.424-5.663 1.872.471 1.424-5.663 1.872-.471-1.424-5.662 1.872.47 1.424-5.662 1.872-.471-1.424-5.663 1.872.471 1.424-5.663 1.872-.471-1.424-5.663 1.872.471 1.424-5.663 1.873-.47-1.425-5.663 1.872.471 1.425-5.663 1.872-.471-1.424-5.663 1.872.471 1.424-5.663 1.872-.471-1.424-5.662 1.872.47 1.424-5.662 1.872-.471-1.424-5.663 1.872.471 1.424-5.663 1.872-.471-1.424-5.663 1.872.471 1.424-5.663 1.872-.47-1.424-5.663 1.872.471 1.425-5.663 1.872-.471-1.425-5.663 1.873.471 1.424-5.663 1.872-.471-1.424-5.662 1.872.47 1.424-5.662 1.872-.471-1.424-5.663 1.872.471 1.424-5.663 1.872-.471-1.424-5.663 1.872.471 1.424-5.663 1.872-.47-1.424-5.663 1.872.471 1.425-5.663 1.872-.471-1.425-5.663 1.873.471 1.424-5.663 1.872-.471-1.424-5.662 1.872.47 1.424-5.662 1.872-.471-1.424-5.663 1.872.471 1.424-5.663 1.872-.471-1.424-5.663 1.872.471 1.424-5.662 1.872-.471-1.424-5.663 1.872.471 1.424-5.663 1.873-.471-1.425-5.663 1.872.471 1.425-5.663 1.872-.47-1.424-5.663 1.872.471 1.424-5.663 1.872-.471-1.424-5.663 1.872.471 1.424-5.663 1.872-.471-1.424-5.662 1.872.47 1.424-5.662 1.872-.471-1.424-5.663 1.872.47 1.424-5.662 1.872-.47-1.424-5.664 1.872.471 1.425-5.662 1.872-.471-1.425-5.663 1.873.47 1.424-5.662 1.872-.471-1.424-5.663 1.872.471 1.424-5.663 1.872-.47-1.424-5.663 1.872.47 1.424-5.662 1.872-.471-1.424L42 818.535l.47 1.424-5.662 1.872-.47-1.424-5.664 1.872.471 1.424-5.662 1.873-.471-1.425-5.663 1.872.47 1.425-5.662 1.872-.47-1.424-5.664 1.872.471 1.424-5.663 1.872-.47-1.424-.861.284v-.931H0v-6.014h1.5v-6.013H0v-6.014h1.5v-6.014H0v-6.013h1.5v-6.014H0v-6.013h1.5v-6.014H0v-6.014h1.5v-6.013H0v-6.014h1.5v-6.013H0v-6.014h1.5v-6.014H0v-6.013h1.5v-6.014H0v-6.014h1.5v-6.013H0v-6.014h1.5v-6.013H0v-6.014h1.5v-6.014H0v-6.013h1.5v-6.014H0v-6.013h1.5v-6.014H0v-6.014h1.5v-6.013H0v-6.014h1.5v-6.014H0v-6.013h1.5v-6.014H0v-6.014h1.5v-6.013H0v-6.014h1.5v-6.013H0v-6.014h1.5v-6.014H0v-6.013h1.5v-6.014H0v-6.014h1.5v-6.013H0v-6.014h1.5v-6.014H0v-6.013h1.5v-6.014H0v-6.014h1.5v-6.013H0v-6.014h1.5v-6.013H0v-6.014h1.5v-6.014H0v-6.013h1.5v-6.014H0v-6.014h1.5v-6.013H0v-6.014h1.5v-6.014H0v-6.013h1.5v-6.014H0v-6.014h1.5v-6.013H0v-6.014h1.5v-6.013H0v-6.014h1.5v-6.014H0v-6.013h1.5v-6.014H0v-6.014h1.5v-6.013H0v-6.014h1.5v-6.014H0v-6.013h1.5v-6.014H0v-6.013h1.5v-6.014H0v-6.014h1.5v-6.013H0v-6.014h1.5v-6.014H0v-6.013h1.5v-6.014H0v-6.014h1.5v-6.013H0v-6.014h1.5v-6.014H0v-6.013h1.5v-6.014H0v-6.013h1.5v-6.014H0v-6.014h1.5v-6.013H0v-6.014h1.5v-6.014H0v-6.013h1.5v-6.014H0v-6.014h1.5v-6.013H0v-6.014h1.5v-6.013H0v-6.014h1.5v-6.014H0v-6.013h1.5v-6.014H0v-6.014h1.5v-6.013H0v-6.014h1.5v-6.014H0z" stroke="#C89C71" stroke-width="3" stroke-dasharray="6 6"/></svg>