<svg width="34" height="35" fill="none" xmlns="http://www.w3.org/2000/svg"><path d="M30.166 3.408c-.89-.8-4.489-3.35-12.513-3.383 0 0-9.46-.554-14.067 3.575C1.023 6.1.12 9.772.022 14.317c-.098 4.545-.217 13.062 8.192 15.372h.007l-.007 3.527s-.056 1.428.91 1.715c1.163.356 1.849-.73 2.962-1.9.61-.642 1.45-1.585 2.087-2.303 5.756.472 10.174-.608 10.678-.766 1.163-.369 7.738-1.189 8.802-9.705 1.106-8.79-.532-14.34-3.487-16.849zm.973 16.206c-.903 7.109-6.232 7.56-7.212 7.867-.42.13-4.306 1.073-9.187.766 0 0-3.64 4.285-4.775 5.4-.371.362-.778.328-.77-.39 0-.472.027-5.858.027-5.858-.006 0-.006 0 0 0-7.128-1.927-6.708-9.18-6.63-12.973.077-3.793.812-6.903 2.982-8.995 3.9-3.451 11.932-2.939 11.932-2.939 6.785.028 10.034 2.023 10.79 2.693 2.5 2.092 3.774 7.095 2.843 14.43zm-9.733-5.523c.028.588-.875.63-.903.041-.077-1.503-.798-2.235-2.283-2.317-.602-.034-.546-.916.05-.881 1.953.102 3.038 1.196 3.136 3.157zm1.422.773c.07-2.898-1.786-5.168-5.308-5.42-.595-.042-.532-.923.063-.882 4.061.287 6.225 3.014 6.148 6.322-.007.588-.917.56-.903-.02zm3.29.916c.008.587-.903.594-.903.007-.042-5.571-3.844-8.606-8.458-8.64-.595-.007-.595-.882 0-.882 5.16.034 9.313 3.513 9.362 9.515zm-.79 6.705v.014c-.757 1.298-2.171 2.734-3.628 2.276l-.014-.02c-1.477-.404-4.957-2.154-7.156-3.863a18.092 18.092 0 01-2.969-2.898 22.146 22.146 0 01-2.156-3.185c-1.492-2.631-1.821-3.807-1.821-3.807-.47-1.422.994-2.802 2.332-3.54h.014c.644-.329 1.26-.22 1.673.266 0 0 .869 1.011 1.24 1.51.35.465.819 1.21 1.064 1.627.427.745.161 1.504-.26 1.818l-.84.656c-.427.335-.37.957-.37.957s1.246 4.6 5.902 5.762c0 0 .637.055.98-.362l.673-.82c.322-.41 1.1-.67 1.862-.253 1.03.567 2.339 1.449 3.207 2.249.49.39.602.984.266 1.613z" fill="#272727"/></svg>