<svg width="35" height="35" fill="none" xmlns="http://www.w3.org/2000/svg"><path d="M29.898 5.086a17.304 17.304 0 00-5.653-3.774A17.373 17.373 0 0017.567 0C7.962 0 .145 7.78.145 17.343c0 3.055.805 6.044 2.328 8.669L0 35l9.24-2.413a17.5 17.5 0 008.325 2.113h.006C27.176 34.7 35 26.922 35 17.358a17.176 17.176 0 00-1.319-6.643 17.247 17.247 0 00-3.786-5.627l.003-.002zM17.57 31.773a14.53 14.53 0 01-7.377-2.01l-.53-.315-5.483 1.429 1.464-5.318-.343-.547a14.248 14.248 0 01-2.218-7.67A14.4 14.4 0 017.336 7.15 14.544 14.544 0 0117.58 2.925a14.44 14.44 0 0110.242 4.224 14.333 14.333 0 013.145 4.677c.728 1.75 1.1 3.627 1.094 5.52-.007 7.957-6.505 14.425-14.49 14.425v.002zm7.943-10.8c-.433-.218-2.576-1.264-2.974-1.408-.398-.144-.688-.219-.983.219-.288.43-1.125 1.409-1.38 1.702-.255.286-.508.328-.941.109-.434-.219-1.843-.676-3.505-2.152-1.292-1.149-2.17-2.57-2.424-3.002-.255-.43-.029-.67.193-.881.2-.193.433-.506.653-.76.22-.253.288-.43.433-.723.145-.287.075-.54-.035-.76-.11-.218-.983-2.351-1.339-3.22-.35-.848-.714-.73-.983-.745-.255-.014-.543-.014-.83-.014-.288 0-.763.11-1.161.54-.398.432-1.526 1.484-1.526 3.617s1.559 4.191 1.779 4.484c.22.287 3.07 4.668 7.439 6.543 1.037.444 1.849.71 2.48.917 1.044.328 1.991.28 2.74.17.838-.122 2.577-1.046 2.942-2.058.365-1.013.365-1.88.255-2.059-.103-.192-.391-.3-.83-.52l-.003.002z" fill="#272727"/></svg>